<mxfile host="65bd71144e">
    <diagram name="AWS Amplify Architecture" id="aws-amplify-arch">
        <mxGraphModel dx="1580" dy="1094" grid="1" gridSize="10" guides="1" tooltips="1" connect="1" arrows="1" fold="1" page="1" pageScale="1" pageWidth="1654" pageHeight="1169" math="0" shadow="0">
            <root>
                <mxCell id="0"/>
                <mxCell id="1" parent="0"/>
                <mxCell id="aws-cloud" value="AWS Cloud Environment" style="rounded=1;whiteSpace=wrap;html=1;fillColor=#FFF2CC;strokeColor=#D6B656;fontSize=16;fontStyle=1;verticalAlign=top;spacingTop=10;" parent="1" vertex="1">
                    <mxGeometry x="80" y="80" width="1480" height="810" as="geometry"/>
                </mxCell>
                <mxCell id="frontend-container" value="Frontend Layer" style="rounded=1;whiteSpace=wrap;html=1;fillColor=#E1D5E7;strokeColor=#9673A6;fontSize=14;fontStyle=1;verticalAlign=top;spacingTop=10;" parent="1" vertex="1">
                    <mxGeometry x="120" y="120" width="400" height="300" as="geometry"/>
                </mxCell>
                <mxCell id="react-app" value="React SPA&#xa;(TypeScript)" style="rounded=1;whiteSpace=wrap;html=1;fillColor=#D5E8D4;strokeColor=#82B366;" parent="1" vertex="1">
                    <mxGeometry x="140" y="160" width="120" height="60" as="geometry"/>
                </mxCell>
                <mxCell id="router" value="TanStack Router&#xa;(File-based)" style="rounded=1;whiteSpace=wrap;html=1;fillColor=#D5E8D4;strokeColor=#82B366;" parent="1" vertex="1">
                    <mxGeometry x="280" y="160" width="120" height="60" as="geometry"/>
                </mxCell>
                <mxCell id="ui-lib" value="PrimeReact&#xa;UI Components" style="rounded=1;whiteSpace=wrap;html=1;fillColor=#D5E8D4;strokeColor=#82B366;" parent="1" vertex="1">
                    <mxGeometry x="140" y="240" width="120" height="60" as="geometry"/>
                </mxCell>
                <mxCell id="react-query" value="TanStack Query&#xa;(State Management)" style="rounded=1;whiteSpace=wrap;html=1;fillColor=#D5E8D4;strokeColor=#82B366;" parent="1" vertex="1">
                    <mxGeometry x="280" y="240" width="120" height="60" as="geometry"/>
                </mxCell>
                <mxCell id="vite" value="Vite&#xa;(Build Tool)" style="rounded=1;whiteSpace=wrap;html=1;fillColor=#D5E8D4;strokeColor=#82B366;" parent="1" vertex="1">
                    <mxGeometry x="210" y="320" width="120" height="60" as="geometry"/>
                </mxCell>
                <mxCell id="auth-container" value="Authentication Layer" style="rounded=1;whiteSpace=wrap;html=1;fillColor=#F8CECC;strokeColor=#B85450;fontSize=14;fontStyle=1;verticalAlign=top;spacingTop=10;" parent="1" vertex="1">
                    <mxGeometry x="559" y="109" width="200" height="180" as="geometry"/>
                </mxCell>
                <mxCell id="cognito" value="" style="sketch=0;points=[[0,0,0],[0.25,0,0],[0.5,0,0],[0.75,0,0],[1,0,0],[0,1,0],[0.25,1,0],[0.5,1,0],[0.75,1,0],[1,1,0],[0,0.25,0],[0,0.5,0],[0,0.75,0],[1,0.25,0],[1,0.5,0],[1,0.75,0]];outlineConnect=0;fontColor=#232F3E;gradientColor=#F54749;gradientDirection=north;fillColor=#C7131F;strokeColor=#ffffff;dashed=0;verticalLabelPosition=bottom;verticalAlign=top;align=center;html=1;fontSize=12;fontStyle=0;aspect=fixed;shape=mxgraph.aws4.resourceIcon;resIcon=mxgraph.aws4.cognito;" parent="1" vertex="1">
                    <mxGeometry x="620" y="160" width="78" height="78" as="geometry"/>
                </mxCell>
                <mxCell id="cognito-label" value="AWS Cognito&#xa;User Pools" style="text;html=1;strokeColor=none;fillColor=none;align=center;verticalAlign=middle;whiteSpace=wrap;rounded=0;" parent="1" vertex="1">
                    <mxGeometry x="580" y="245" width="120" height="30" as="geometry"/>
                </mxCell>
                <mxCell id="backend-container" value="Backend Services (AWS Amplify)" style="rounded=1;whiteSpace=wrap;html=1;fillColor=#DAE8FC;strokeColor=#6C8EBF;fontSize=14;fontStyle=1;verticalAlign=top;spacingTop=10;" parent="1" vertex="1">
                    <mxGeometry x="800" y="120" width="720" height="400" as="geometry"/>
                </mxCell>
                <mxCell id="appsync" value="" style="sketch=0;points=[[0,0,0],[0.25,0,0],[0.5,0,0],[0.75,0,0],[1,0,0],[0,1,0],[0.25,1,0],[0.5,1,0],[0.75,1,0],[1,1,0],[0,0.25,0],[0,0.5,0],[0,0.75,0],[1,0.25,0],[1,0.5,0],[1,0.75,0]];outlineConnect=0;fontColor=#232F3E;gradientColor=#4AB29A;gradientDirection=north;fillColor=#116D5B;strokeColor=#ffffff;dashed=0;verticalLabelPosition=bottom;verticalAlign=top;align=center;html=1;fontSize=12;fontStyle=0;aspect=fixed;shape=mxgraph.aws4.resourceIcon;resIcon=mxgraph.aws4.appsync;" parent="1" vertex="1">
                    <mxGeometry x="840" y="160" width="78" height="78" as="geometry"/>
                </mxCell>
                <mxCell id="appsync-label" value="AWS AppSync&#xa;GraphQL API" style="text;html=1;strokeColor=none;fillColor=none;align=center;verticalAlign=middle;whiteSpace=wrap;rounded=0;" parent="1" vertex="1">
                    <mxGeometry x="820" y="245" width="120" height="30" as="geometry"/>
                </mxCell>
                <mxCell id="lambda" value="" style="sketch=0;points=[[0,0,0],[0.25,0,0],[0.5,0,0],[0.75,0,0],[1,0,0],[0,1,0],[0.25,1,0],[0.5,1,0],[0.75,1,0],[1,1,0],[0,0.25,0],[0,0.5,0],[0,0.75,0],[1,0.25,0],[1,0.5,0],[1,0.75,0]];outlineConnect=0;fontColor=#232F3E;gradientColor=#F78E04;gradientDirection=north;fillColor=#D05C17;strokeColor=#ffffff;dashed=0;verticalLabelPosition=bottom;verticalAlign=top;align=center;html=1;fontSize=12;fontStyle=0;aspect=fixed;shape=mxgraph.aws4.resourceIcon;resIcon=mxgraph.aws4.lambda;" parent="1" vertex="1">
                    <mxGeometry x="1000" y="160" width="78" height="78" as="geometry"/>
                </mxCell>
                <mxCell id="lambda-label" value="Lambda Function&#xa;onUploadHandler" style="text;html=1;strokeColor=none;fillColor=none;align=center;verticalAlign=middle;whiteSpace=wrap;rounded=0;" parent="1" vertex="1">
                    <mxGeometry x="980" y="245" width="120" height="30" as="geometry"/>
                </mxCell>
                <mxCell id="sharp-layer" value="Sharp Layer&#xa;(Image Processing)" style="rounded=1;whiteSpace=wrap;html=1;fillColor=#FFE6CC;strokeColor=#D79B00;" parent="1" vertex="1">
                    <mxGeometry x="1120" y="160" width="120" height="60" as="geometry"/>
                </mxCell>
                <mxCell id="exifr-lib" value="EXIFR Library&#xa;(Metadata Extract)" style="rounded=1;whiteSpace=wrap;html=1;fillColor=#FFE6CC;strokeColor=#D79B00;" parent="1" vertex="1">
                    <mxGeometry x="1120" y="240" width="120" height="60" as="geometry"/>
                </mxCell>
                <mxCell id="data-models" value="Data Models" style="rounded=1;whiteSpace=wrap;html=1;fillColor=#FFF2CC;strokeColor=#D6B656;fontSize=12;fontStyle=1;verticalAlign=top;spacingTop=5;" parent="1" vertex="1">
                    <mxGeometry x="840" y="320" width="280" height="180" as="geometry"/>
                </mxCell>
                <mxCell id="gallery-model" value="Gallery" style="rounded=1;whiteSpace=wrap;html=1;fillColor=#E1D5E7;strokeColor=#9673A6;" parent="1" vertex="1">
                    <mxGeometry x="860" y="350" width="80" height="40" as="geometry"/>
                </mxCell>
                <mxCell id="image-model" value="Image" style="rounded=1;whiteSpace=wrap;html=1;fillColor=#E1D5E7;strokeColor=#9673A6;" parent="1" vertex="1">
                    <mxGeometry x="1020" y="350" width="80" height="40" as="geometry"/>
                </mxCell>
                <mxCell id="galleryimage-model" value="GalleryImage" style="rounded=1;whiteSpace=wrap;html=1;fillColor=#E1D5E7;strokeColor=#9673A6;" parent="1" vertex="1">
                    <mxGeometry x="940" y="420" width="80" height="40" as="geometry"/>
                </mxCell>
                <mxCell id="storage-container" value="Storage Layer" style="rounded=1;whiteSpace=wrap;html=1;fillColor=#D4EDDA;strokeColor=#28A745;fontSize=14;fontStyle=1;verticalAlign=top;spacingTop=10;" parent="1" vertex="1">
                    <mxGeometry x="120" y="560" width="1400" height="280" as="geometry"/>
                </mxCell>
                <mxCell id="s3" value="" style="sketch=0;points=[[0,0,0],[0.25,0,0],[0.5,0,0],[0.75,0,0],[1,0,0],[0,1,0],[0.25,1,0],[0.5,1,0],[0.75,1,0],[1,1,0],[0,0.25,0],[0,0.5,0],[0,0.75,0],[1,0.25,0],[1,0.5,0],[1,0.75,0]];outlineConnect=0;fontColor=#232F3E;gradientColor=#60A337;gradientDirection=north;fillColor=#277116;strokeColor=#ffffff;dashed=0;verticalLabelPosition=bottom;verticalAlign=top;align=center;html=1;fontSize=12;fontStyle=0;aspect=fixed;shape=mxgraph.aws4.resourceIcon;resIcon=mxgraph.aws4.s3;" parent="1" vertex="1">
                    <mxGeometry x="200" y="620" width="78" height="78" as="geometry"/>
                </mxCell>
                <mxCell id="s3-label" value="Amazon S3&#xa;File Storage" style="text;html=1;strokeColor=none;fillColor=none;align=center;verticalAlign=middle;whiteSpace=wrap;rounded=0;" parent="1" vertex="1">
                    <mxGeometry x="180" y="705" width="120" height="30" as="geometry"/>
                </mxCell>
                <mxCell id="uploads-bucket" value="uploads/&#xa;(Original Images)" style="rounded=1;whiteSpace=wrap;html=1;fillColor=#D5E8D4;strokeColor=#82B366;" parent="1" vertex="1">
                    <mxGeometry x="320" y="620" width="120" height="60" as="geometry"/>
                </mxCell>
                <mxCell id="thumbnails-bucket" value="thumbnails/&#xa;(Generated)" style="rounded=1;whiteSpace=wrap;html=1;fillColor=#D5E8D4;strokeColor=#82B366;" parent="1" vertex="1">
                    <mxGeometry x="320" y="700" width="120" height="60" as="geometry"/>
                </mxCell>
                <mxCell id="dynamodb" value="" style="sketch=0;points=[[0,0,0],[0.25,0,0],[0.5,0,0],[0.75,0,0],[1,0,0],[0,1,0],[0.25,1,0],[0.5,1,0],[0.75,1,0],[1,1,0],[0,0.25,0],[0,0.5,0],[0,0.75,0],[1,0.25,0],[1,0.5,0],[1,0.75,0]];outlineConnect=0;fontColor=#232F3E;gradientColor=#4D72F3;gradientDirection=north;fillColor=#3334B9;strokeColor=#ffffff;dashed=0;verticalLabelPosition=bottom;verticalAlign=top;align=center;html=1;fontSize=12;fontStyle=0;aspect=fixed;shape=mxgraph.aws4.resourceIcon;resIcon=mxgraph.aws4.dynamodb;" parent="1" vertex="1">
                    <mxGeometry x="520" y="620" width="78" height="78" as="geometry"/>
                </mxCell>
                <mxCell id="dynamodb-label" value="Amazon DynamoDB&#xa;NoSQL Database" style="text;html=1;strokeColor=none;fillColor=none;align=center;verticalAlign=middle;whiteSpace=wrap;rounded=0;" parent="1" vertex="1">
                    <mxGeometry x="500" y="705" width="120" height="30" as="geometry"/>
                </mxCell>
                <mxCell id="gallery-table" value="Gallery Table" style="rounded=1;whiteSpace=wrap;html=1;fillColor=#DAE8FC;strokeColor=#6C8EBF;" parent="1" vertex="1">
                    <mxGeometry x="640" y="600" width="100" height="40" as="geometry"/>
                </mxCell>
                <mxCell id="image-table" value="Image Table" style="rounded=1;whiteSpace=wrap;html=1;fillColor=#DAE8FC;strokeColor=#6C8EBF;" parent="1" vertex="1">
                    <mxGeometry x="640" y="650" width="100" height="40" as="geometry"/>
                </mxCell>
                <mxCell id="galleryimage-table" value="GalleryImage Table" style="rounded=1;whiteSpace=wrap;html=1;fillColor=#DAE8FC;strokeColor=#6C8EBF;" parent="1" vertex="1">
                    <mxGeometry x="640" y="700" width="100" height="40" as="geometry"/>
                </mxCell>
                <mxCell id="cloudfront" value="" style="sketch=0;points=[[0,0,0],[0.25,0,0],[0.5,0,0],[0.75,0,0],[1,0,0],[0,1,0],[0.25,1,0],[0.5,1,0],[0.75,1,0],[1,1,0],[0,0.25,0],[0,0.5,0],[0,0.75,0],[1,0.25,0],[1,0.5,0],[1,0.75,0]];outlineConnect=0;fontColor=#232F3E;gradientColor=#945DF2;gradientDirection=north;fillColor=#5A30B5;strokeColor=#ffffff;dashed=0;verticalLabelPosition=bottom;verticalAlign=top;align=center;html=1;fontSize=12;fontStyle=0;aspect=fixed;shape=mxgraph.aws4.resourceIcon;resIcon=mxgraph.aws4.cloudfront;" parent="1" vertex="1">
                    <mxGeometry x="840" y="620" width="78" height="78" as="geometry"/>
                </mxCell>
                <mxCell id="cloudfront-label" value="CloudFront CDN&#xa;(Implicit with Amplify)" style="text;html=1;strokeColor=none;fillColor=none;align=center;verticalAlign=middle;whiteSpace=wrap;rounded=0;" parent="1" vertex="1">
                    <mxGeometry x="820" y="705" width="120" height="30" as="geometry"/>
                </mxCell>
                <mxCell id="user" value="Users" style="shape=umlActor;verticalLabelPosition=bottom;verticalAlign=top;html=1;outlineConnect=0;fillColor=#FFF2CC;strokeColor=#D6B656;" parent="1" vertex="1">
                    <mxGeometry x="30" y="160" width="30" height="60" as="geometry"/>
                </mxCell>
                <mxCell id="user-to-frontend" value="" style="endArrow=classic;html=1;rounded=0;strokeColor=#007ACC;strokeWidth=2;" parent="1" source="user" target="react-app" edge="1">
                    <mxGeometry width="50" height="50" relative="1" as="geometry">
                        <mxPoint x="90" y="330" as="sourcePoint"/>
                        <mxPoint x="140" y="280" as="targetPoint"/>
                    </mxGeometry>
                </mxCell>
                <mxCell id="frontend-to-auth" value="Authentication" style="endArrow=classic;html=1;rounded=0;strokeColor=#FF6B6B;strokeWidth=2;" parent="1" source="react-app" target="cognito" edge="1">
                    <mxGeometry width="50" height="50" relative="1" as="geometry">
                        <mxPoint x="270" y="190" as="sourcePoint"/>
                        <mxPoint x="610" y="190" as="targetPoint"/>
                    </mxGeometry>
                </mxCell>
                <mxCell id="frontend-to-appsync" value="GraphQL Queries" style="endArrow=classic;html=1;rounded=0;strokeColor=#4ECDC4;strokeWidth=2;" parent="1" source="react-query" target="appsync" edge="1">
                    <mxGeometry width="50" height="50" relative="1" as="geometry">
                        <mxPoint x="410" y="270" as="sourcePoint"/>
                        <mxPoint x="830" y="200" as="targetPoint"/>
                    </mxGeometry>
                </mxCell>
                <mxCell id="appsync-to-dynamodb" value="Read/Write" style="endArrow=classic;html=1;rounded=0;strokeColor=#4ECDC4;strokeWidth=2;" parent="1" source="appsync" target="dynamodb" edge="1">
                    <mxGeometry width="50" height="50" relative="1" as="geometry">
                        <mxPoint x="879" y="250" as="sourcePoint"/>
                        <mxPoint x="559" y="610" as="targetPoint"/>
                    </mxGeometry>
                </mxCell>
                <mxCell id="s3-to-lambda" value="S3 Upload Trigger" style="endArrow=classic;html=1;rounded=0;strokeColor=#FF9F43;strokeWidth=2;" parent="1" source="uploads-bucket" target="lambda" edge="1">
                    <mxGeometry width="50" height="50" relative="1" as="geometry">
                        <mxPoint x="450" y="640" as="sourcePoint"/>
                        <mxPoint x="990" y="250" as="targetPoint"/>
                    </mxGeometry>
                </mxCell>
                <mxCell id="lambda-to-dynamodb" value="Insert Records" style="endArrow=classic;html=1;rounded=0;strokeColor=#FF9F43;strokeWidth=2;" parent="1" source="lambda" target="dynamodb" edge="1">
                    <mxGeometry width="50" height="50" relative="1" as="geometry">
                        <mxPoint x="1020" y="250" as="sourcePoint"/>
                        <mxPoint x="580" y="610" as="targetPoint"/>
                    </mxGeometry>
                </mxCell>
                <mxCell id="lambda-to-s3-thumb" value="Generate Thumbnails" style="endArrow=classic;html=1;rounded=0;strokeColor=#FF9F43;strokeWidth=2;" parent="1" source="lambda" target="thumbnails-bucket" edge="1">
                    <mxGeometry width="50" height="50" relative="1" as="geometry">
                        <mxPoint x="1000" y="250" as="sourcePoint"/>
                        <mxPoint x="450" y="710" as="targetPoint"/>
                    </mxGeometry>
                </mxCell>
                <mxCell id="frontend-to-s3" value="File Upload" style="endArrow=classic;html=1;rounded=0;strokeColor=#007ACC;strokeWidth=2;" parent="1" source="react-app" target="uploads-bucket" edge="1">
                    <mxGeometry width="50" height="50" relative="1" as="geometry">
                        <mxPoint x="200" y="230" as="sourcePoint"/>
                        <mxPoint x="360" y="610" as="targetPoint"/>
                    </mxGeometry>
                </mxCell>
                <mxCell id="gallery-to-galleryimage" value="1:many" style="endArrow=classic;html=1;rounded=0;strokeColor=#9673A6;" parent="1" source="gallery-model" target="galleryimage-model" edge="1">
                    <mxGeometry width="50" height="50" relative="1" as="geometry">
                        <mxPoint x="900" y="400" as="sourcePoint"/>
                        <mxPoint x="950" y="410" as="targetPoint"/>
                    </mxGeometry>
                </mxCell>
                <mxCell id="image-to-galleryimage" value="1:many" style="endArrow=classic;html=1;rounded=0;strokeColor=#9673A6;" parent="1" source="image-model" target="galleryimage-model" edge="1">
                    <mxGeometry width="50" height="50" relative="1" as="geometry">
                        <mxPoint x="1060" y="400" as="sourcePoint"/>
                        <mxPoint x="1000" y="410" as="targetPoint"/>
                    </mxGeometry>
                </mxCell>
                <mxCell id="legend" value="Legend" style="rounded=1;whiteSpace=wrap;html=1;fillColor=#F5F5F5;strokeColor=#666666;fontSize=14;fontStyle=1;verticalAlign=top;spacingTop=10;" parent="1" vertex="1">
                    <mxGeometry x="1200" y="600" width="300" height="200" as="geometry"/>
                </mxCell>
                <mxCell id="legend-auth" value="Authentication Flow" style="endArrow=classic;html=1;rounded=0;strokeColor=#FF6B6B;strokeWidth=2;" parent="1" edge="1">
                    <mxGeometry width="50" height="50" relative="1" as="geometry">
                        <mxPoint x="1220" y="640" as="sourcePoint"/>
                        <mxPoint x="1280" y="640" as="targetPoint"/>
                    </mxGeometry>
                </mxCell>
                <mxCell id="legend-data" value="Data Flow" style="endArrow=classic;html=1;rounded=0;strokeColor=#4ECDC4;strokeWidth=2;" parent="1" edge="1">
                    <mxGeometry width="50" height="50" relative="1" as="geometry">
                        <mxPoint x="1220" y="660" as="sourcePoint"/>
                        <mxPoint x="1280" y="660" as="targetPoint"/>
                    </mxGeometry>
                </mxCell>
                <mxCell id="legend-upload" value="Upload Processing" style="endArrow=classic;html=1;rounded=0;strokeColor=#FF9F43;strokeWidth=2;" parent="1" edge="1">
                    <mxGeometry width="50" height="50" relative="1" as="geometry">
                        <mxPoint x="1220" y="680" as="sourcePoint"/>
                        <mxPoint x="1280" y="680" as="targetPoint"/>
                    </mxGeometry>
                </mxCell>
                <mxCell id="legend-user" value="User Interaction" style="endArrow=classic;html=1;rounded=0;strokeColor=#007ACC;strokeWidth=2;" parent="1" edge="1">
                    <mxGeometry width="50" height="50" relative="1" as="geometry">
                        <mxPoint x="1220" y="700" as="sourcePoint"/>
                        <mxPoint x="1280" y="700" as="targetPoint"/>
                    </mxGeometry>
                </mxCell>
                <mxCell id="legend-relationship" value="Data Relationships" style="endArrow=classic;html=1;rounded=0;strokeColor=#9673A6;" parent="1" edge="1">
                    <mxGeometry width="50" height="50" relative="1" as="geometry">
                        <mxPoint x="1220" y="720" as="sourcePoint"/>
                        <mxPoint x="1280" y="720" as="targetPoint"/>
                    </mxGeometry>
                </mxCell>
                <mxCell id="features" value="Key Features&#xa;• Public Gallery Viewing&#xa;• Authenticated Uploads&#xa;• Admin Management&#xa;• Auto Thumbnail Generation&#xa;• EXIF Metadata Extraction&#xa;• Role-based Access Control" style="rounded=1;whiteSpace=wrap;html=1;fillColor=#FFF2CC;strokeColor=#D6B656;fontSize=11;verticalAlign=top;spacingTop=10;align=left;spacingLeft=10;" parent="1" vertex="1">
                    <mxGeometry x="1270" y="160" width="220" height="140" as="geometry"/>
                </mxCell>
                <mxCell id="security" value="Security Model&#xa;&#xa;Public: Read galleries/images&#xa;Authenticated: Upload images&#xa;Admin: Manage all content" style="rounded=1;whiteSpace=wrap;html=1;fillColor=#F8CECC;strokeColor=#B85450;fontSize=11;verticalAlign=top;spacingTop=10;align=left;spacingLeft=10;" parent="1" vertex="1">
                    <mxGeometry x="1270" y="320" width="220" height="100" as="geometry"/>
                </mxCell>
            </root>
        </mxGraphModel>
    </diagram>
</mxfile>